<svg width="765.929" height="185.192" xmlns="http://www.w3.org/2000/svg"><defs><clipPath clipPathUnits="userSpaceOnUse" id="a"><path d="M424.882 791.311h132.662v30.728H424.882Z" transform="translate(-617.498 -806.689)"/></clipPath><clipPath clipPathUnits="userSpaceOnUse" id="b"><path d="M492.228 772.603h66.047v30.728h-66.047z" transform="translate(-548.498 -787.981)"/></clipPath></defs><g style="fill:#002733;fill-opacity:1"><path d="M-71.409-5.093h1.944v6.877l4.41-6.877h2.104V5.062h-1.944v-6.876l-4.41 6.876h-2.104zm-11.505 0h7.094v1.8h-5.15v2.437h4.512v1.8h-4.512v2.32h5.15v1.8h-7.094V-5.091Zm-9.894 0h3.017c1.669 0 2.583.914 2.583 2.583V.45h-3.7v-1.8h1.755v-1.015c0-.595-.333-.929-.929-.929h-2.437c-.595 0-.929.333-.929.929v4.7c0 .595.333.929.929.929h2.437c.595 0 .929-.333.929-.929v-.202h1.945v.347c0 1.669-.914 2.582-2.583 2.582h-3.017c-1.669 0-2.582-.913-2.582-2.582v-4.99c0-1.669.913-2.583 2.582-2.583m-12.273 3.802 1.45 4.41 1.451-4.41zm-3.395-3.802h2.132l.668 2.031h4.092l.667-2.031h2.133l-3.438 10.155h-2.815l-3.438-10.155zm-25.287 0h3.236c1.465 0 2.263.783 2.263 2.249v1.292c0 1.334-.696 1.987-2.016 2.22l-2.901.508c-.523.088-.754.305-.754.725v.638c0 .464.261.725.725.725h2.249c.464 0 .725-.261.725-.725v-.276h1.945v.552c0 1.465-.783 2.249-2.249 2.249h-3.091c-1.465 0-2.249-.783-2.249-2.249V1.611c0-1.334.682-2.002 2.002-2.234l2.901-.509c.537-.087.769-.304.769-.725v-.711c0-.464-.262-.725-.726-.725h-2.422c-.464 0-.726.261-.726.725v.333h-1.944v-.609c0-1.464.798-2.249 2.263-2.249m-13.709 0h1.944v4.251h1.016l3.06-4.251h2.35l-3.802 5.136 3.743 5.019h-2.35l-3.031-4.134h-.987v4.134h-1.945V-5.093Zm-9.763 0h6.281v1.8h-4.337v8.357h-1.944V-5.091Zm-9.604 1.8c-.594 0-.929.333-.929.929v4.701c0 .594.333.929.929.929h2.437c.595 0 .929-.334.929-.929v-4.701c0-.595-.333-.929-.929-.929zm-.29-1.8h3.017c1.669 0 2.583.914 2.583 2.583v4.99c0 1.669-.914 2.582-2.583 2.582h-3.017c-1.669 0-2.582-.913-2.582-2.582v-4.99c0-1.669.913-2.583 2.582-2.583m-11.765 0h2.815l3.438 10.155h-2.176l-2.67-8.066-2.669 8.066h-2.176zm56.681 0h2.466l1.973 7.486 1.973-7.486h2.466l2.655 10.155h-2.089l-1.843-7.544-1.93 7.544h-2.466l-1.93-7.544-1.843 7.544h-2.089l2.655-10.155z" style="fill:#002733;fill-opacity:1;fill-rule:nonzero;stroke:none" transform="matrix(6.41584 0 0 -6.41584 1169.812 32.49)" clip-path="url(#a)"/></g><g style="fill:#002733;fill-opacity:1"><path d="M0 0v3.264h2.974c.595 0 .928-.333.928-.929V.928c0-.595-.333-.929-.928-.929H0Zm-1.945-5.093H0v3.294h3.264c1.669 0 2.583.913 2.583 2.582V2.48c0 1.669-.914 2.582-2.583 2.582h-5.209zm-9.778 0h2.872c1.669 0 2.582.914 2.582 2.583v7.572h-1.944v-7.427c0-.595-.333-.929-.928-.929h-2.292c-.595 0-.929.333-.929.929v7.427h-1.945V-2.51c0-1.669.914-2.583 2.583-2.583m-12.158 1.8c-.594 0-.927.333-.927.929v4.701c0 .594.333.929.927.929h2.438c.594 0 .927-.334.927-.929v-4.701c0-.595-.333-.929-.927-.929zm-.29-1.8h3.018c1.669 0 2.582.914 2.582 2.583v4.99c0 1.669-.913 2.582-2.582 2.582h-3.018c-1.668 0-2.582-.913-2.582-2.582v-4.99c0-1.669.914-2.583 2.582-2.583M-36.808.29v2.974h3.119c.595 0 .929-.333.929-.929V1.218c0-.595-.333-.929-.929-.929h-3.119zm-1.945-5.383h1.945v3.584h1.595l2.525-3.584h2.292l-2.568 3.612c1.393.145 2.147 1.045 2.147 2.554V2.48c0 1.669-.913 2.582-2.582 2.582h-5.354zm-9.893 0h3.017c1.669 0 2.582.914 2.582 2.583V.45h-3.699v-1.8h1.755v-1.015c0-.595-.334-.929-.928-.929h-2.437c-.595 0-.929.333-.929.929v4.7c0 .595.333.929.929.929h2.437c.594 0 .928-.333.928-.929v-.202h1.944v.347c0 1.669-.913 2.582-2.582 2.582h-3.017c-1.669 0-2.583-.913-2.583-2.582v-4.99c0-1.669.914-2.583 2.583-2.583" style="fill:#002733;fill-opacity:1;fill-rule:nonzero;stroke:none" transform="matrix(6.41584 0 0 -6.41584 528.546 152.516)" clip-path="url(#b)"/></g></svg>